<svg xmlns="http://www.w3.org/2000/svg" xmlns:xlink="http://www.w3.org/1999/xlink" xmlns:lucid="lucid" width="1500" height="841.67"><g transform="translate(0 -8.630952380952465)" lucid:page-tab-id="0_0"><g opacity=".4"><path d="M400 34.63a6 6 0 0 1 6-6h658a6 6 0 0 1 6 6v218a6 6 0 0 1-6 6H406a6 6 0 0 1-6-6z" fill="#cfe4ff"/><path d="M415.05 28.7h9.98m5 0H440m5 0h9.98m5 0h9.98m5 0h9.97m5 0h9.98m5 0h9.98m5 0h9.98m5 0h9.98m5 0h9.97m5 0h10m4.98 0l9.98-.02m5 0h9.98m5 0h9.98m5 0h9.97m4.98 0h10m4.98 0h9.98m5 0h9.98m5 0h9.98m5 0h9.97m5 0h9.98m5 0h9.97m5 0h9.98m5 0l9.97-.02m5 0h9.98m5 0h9.98m5 0h9.97m5 0h9.98m5 0h9.97m5 0h9.98m5 0h9.98m5 0h9.98m5 0h9.98m5 0h9.97m5 0h9.98m5-.02h9.98m5 0h9.98m5 0h9.98m5 0h9.97m5 0h10m4.98 0h9.98m5 0h9.98m5 0h9.98m5 0h4.98l.94.06.9.22.88.36.8.5.72.6.6.72.5.8.37.88.23.9v4.88m0 4.86v9.73m0 4.87v9.73m0 4.86v9.75m0 4.86l.02 9.74m0 4.87v9.74m0 4.86v9.73m0 4.87v9.73m0 4.86l.02 9.72m0 4.87v9.72m0 4.87v9.72m0 4.86v9.73m0 4.88l.02 9.73m0 4.87v9.73m0 4.87v9.73m0 4.87v4.86l-.07.94-.22.92-.35.85-.5.8-.6.72-.72.62-.8.48-.88.36-.9.22h-5m-5 0h-9.98m-5 0H1030m-5 0h-9.98m-5 0h-9.98m-5 0h-9.97m-5 0h-9.98m-5 0h-9.98m-5 0h-9.98m-5 0h-9.98m-5 0h-9.97m-5 0l-10 .02m-4.98 0h-9.98m-5 0h-9.98m-5 0h-9.98m-5 0h-9.97m-4.98 0h-10m-4.98 0h-9.98m-5 0h-9.98m-5 0h-9.98m-5 0h-9.97m-5 0h-9.98m-5 0h-9.97m-5 .02h-9.98m-5 0h-9.97m-5 0h-9.98m-5 0h-9.98m-5 0h-9.97m-5 0h-9.98m-5 0h-9.97m-5 0h-9.98m-5 0h-9.98m-5 0h-9.98m-5 0h-9.98m-5 0h-9.97m-5 .02h-9.98m-5 0h-9.98m-5 0h-9.98m-5 0h-9.98m-5 0h-9.97m-5 0h-10m-4.98 0h-9.98m-5 0h-9.98m-5 0H416m-5 0H406l-.94-.06-.9-.22-.88-.36-.8-.5-.72-.6-.6-.72-.5-.8-.37-.87-.23-.93v-4.87m0-4.86v-9.73m0-4.86v-9.73m0-4.85v-9.73m0-4.87l-.02-9.73m0-4.86v-9.74m0-4.86v-9.73m0-4.87v-9.73m0-4.86l-.02-9.73m0-4.87v-9.73m0-4.86v-9.73m0-4.87v-9.73m0-4.87l-.02-9.73m0-4.86v-9.74m0-4.87v-9.74m0-4.86v-4.87l.07-.94.22-.92.35-.87.5-.8.6-.7.72-.62.8-.5.88-.36.9-.22h5" stroke="#6db1ff" fill="none"/></g><g opacity=".4"><path d="M540 454.63a6 6 0 0 1 6-6h788a6 6 0 0 1 6 6v368a6 6 0 0 1-6 6H546a6 6 0 0 1-6-6z" fill="#cfe4ff"/><path d="M555 448.7h9.9m4.97 0h9.92m4.96 0h9.92m4.96 0h9.93m4.96 0h9.92m4.96 0h9.94m4.96 0h9.92m4.96 0h9.93m4.97 0H684m4.96 0h9.92m4.96 0h9.93m4.96 0h9.92m4.96 0h9.94m4.96 0l9.92-.02m4.96 0h9.93m4.97 0h9.92m4.96 0h9.92m4.96 0h9.92m4.97 0h9.92m4.96 0h9.94m4.96 0h9.92m4.96 0h9.93m4.97 0h9.92m4.95 0h9.93m4.96 0h9.92m4.97 0h9.92m4.96 0h9.94m4.96 0h9.92m4.96-.02h9.93m4.97 0h9.92m4.95 0h9.93m4.96 0h9.92m4.97 0h9.92m4.96 0h9.93m4.97 0h9.92m4.96 0h9.93m4.97 0h9.92m4.95 0h9.93m4.96 0h9.92m4.96 0h9.93m4.96 0h9.93m4.97 0h9.92m4.96 0l9.93-.02m4.97 0h9.92m4.95 0h9.93m4.96 0h9.92m4.96 0h9.93m4.96 0h9.93m4.97 0h9.92m4.96 0h9.92m4.97 0h9.92m4.95 0h9.93m4.96 0h4.96l.94.06.9.22.88.36.8.5.72.6.6.72.5.8.37.88.23.9v4.93m0 4.93v9.84m0 4.92v9.83m0 4.92v9.83m0 4.92v9.84m0 4.92v9.84m0 4.92v9.84m.02 4.92v9.83m0 4.93v9.84m0 4.92v9.83m0 4.92v9.84m0 4.9v9.84m0 4.92v9.84m0 4.92l.02 9.84m0 4.92v9.84m0 4.92v9.83m0 4.92v9.83m0 4.92v9.84m0 4.9v9.85m0 4.92V739m0 4.92l.02 9.84m0 4.92v9.84m0 4.92v9.84m0 4.92v9.84m0 4.9v9.85m0 4.9v4.93l-.07.94-.22.92-.35.85-.5.8-.6.72-.72.62-.8.48-.88.36-.9.22h-4.97m-4.97 0h-9.9m-4.97 0h-9.92m-4.96 0h-9.92m-4.96 0h-9.93m-4.96 0h-9.92m-4.96 0h-9.94m-4.96 0h-9.92m-4.96 0h-9.93m-4.97 0H1196m-4.96 0h-9.92m-4.96 0h-9.93m-4.96 0h-9.92m-4.96 0l-9.94.02m-4.96 0h-9.92m-4.96 0h-9.93m-4.97 0h-9.92m-4.96 0h-9.92m-4.96 0h-9.92m-4.97 0h-9.92m-4.96 0h-9.94m-4.96 0h-9.92m-4.96 0h-9.93m-4.97 0h-9.92m-4.95 0h-9.93m-4.96 0h-9.92m-4.97 0h-9.92m-4.96 0l-9.94.02m-4.96 0h-9.92m-4.96 0h-9.93m-4.97 0h-9.92m-4.95 0h-9.93m-4.96 0h-9.92m-4.97 0h-9.92m-4.96 0h-9.93m-4.97 0h-9.92m-4.96 0h-9.93m-4.97 0h-9.92m-4.95 0h-9.93m-4.96 0h-9.92m-4.96 0h-9.93m-4.96 0h-9.93m-4.97.02h-9.92m-4.96 0h-9.93m-4.97 0H675m-4.95 0h-9.93m-4.96 0h-9.92m-4.96 0h-9.93m-4.96 0h-9.93m-4.97 0h-9.92m-4.96 0h-9.92m-4.97 0h-9.92m-4.95 0h-9.93m-4.96 0H546l-.94-.06-.9-.22-.88-.36-.8-.5-.72-.6-.6-.72-.5-.8-.37-.87-.23-.93v-4.92m0-4.92v-9.84m0-4.93v-9.83m0-4.92v-9.84m0-4.92v-9.84m0-4.92v-9.84m0-4.92v-9.83m-.02-4.9v-9.85m0-4.92v-9.84m0-4.93v-9.84m0-4.92v-9.83m0-4.9v-9.85m0-4.92v-9.84m0-4.92l-.02-9.84m0-4.92v-9.84m0-4.9v-9.85m0-4.93v-9.84m0-4.92v-9.83m0-4.92V553m0-4.9v-9.84m0-4.92l-.02-9.84m0-4.92v-9.84m0-4.92v-9.84m0-4.9v-9.85m0-4.92v-9.83m0-4.92v-4.92l.07-.94.22-.92.35-.87.5-.8.6-.7.72-.62.8-.5.88-.36.9-.22h4.97" stroke="#6db1ff" fill="none"/></g><g opacity=".8"><path d="M940 639.63a6 6 0 0 1 6-6h208a6 6 0 0 1 6 6v108a6 6 0 0 1-6 6H946a6 6 0 0 1-6-6z" stroke="#008a0e" fill="#54c45e"/><use xlink:href="#a" transform="matrix(1,0,0,1,952,645.6309523809525) translate(50.5 38.77777777777778)"/><use xlink:href="#b" transform="matrix(1,0,0,1,952,645.6309523809525) translate(109.69753086419753 38.77777777777778)"/><use xlink:href="#c" transform="matrix(1,0,0,1,952,645.6309523809525) translate(11.179012345679027 65.44444444444446)"/></g><g opacity=".8"><path d="M580 654.63a6 6 0 0 1 6-6h168a6 6 0 0 1 6 6v78a6 6 0 0 1-6 6H586a6 6 0 0 1-6-6z" stroke="#1071e5" fill="#6db1ff"/><use xlink:href="#d" transform="matrix(1,0,0,1,592,660.6309523809525) translate(4.265432098765416 23.96527777777778)"/><use xlink:href="#e" transform="matrix(1,0,0,1,592,660.6309523809525) translate(55.62345679012344 23.96527777777778)"/><use xlink:href="#f" transform="matrix(1,0,0,1,592,660.6309523809525) translate(33.648148148148145 50.63194444444445)"/></g><path d="M776.85 693.63h146.3" stroke="#282c33" fill="none"/><path d="M762.08 693.63l14.27-4.63v9.27zM937.92 693.63l-14.27 4.64V689z" stroke="#282c33" fill="#282c33"/><path d="M800 654.63a6 6 0 0 1 6-6h68a6 6 0 0 1 6 6v23a6 6 0 0 1-6 6h-68a6 6 0 0 1-6-6z" stroke="#000" stroke-opacity="0" fill="#fff" fill-opacity="0"/><use xlink:href="#g" transform="matrix(1,0,0,1,805,653.6309523809525) translate(6.080246913580247 19.34027777777778)"/><path d="M1140 497.13a6 6 0 0 1 6-6h168a6 6 0 0 1 6 6v74c-30.06-13.36-48.78-13.36-60.12-13.36-18 0-41.94 13.36-59.94 13.36-11.16 0-30.06 0-59.94-13.36z" stroke="#00c2a8" fill="#d7faf5"/><use xlink:href="#h" transform="matrix(1,0,0,1,1145,496.1309523809525) translate(7.283950617283949 32.02777777777778)"/><path d="M1230 565.2v122.43a6 6 0 0 1-6 6h-47.15" stroke="#282c33" fill="none"/><path d="M1230.5 565.22h-1v-.37l1-.28z" stroke="#282c33" stroke-width=".05" fill="#282c33"/><path d="M1162.08 693.63l14.27-4.63v9.27z" stroke="#282c33" fill="#282c33"/><g opacity=".9"><path d="M1344 172.63c-13.25 0-24-10.74-24-24 0-10.6 6.5-19.55 16.58-22.82-.58-31.17 39.42-37.17 55.42-25.17 8-18 48-12 48 6 24-6 48 18 32 48 16 24 0 54-32 42-8 15.6-40 15.6-48 0-16 12-48 6-48-24z" stroke="#1071e5" fill="#1071e5"/><use xlink:href="#i" transform="matrix(1,0,0,1,1325,93.63095238095246) translate(38.40623456790124 25.787777777777777)"/><use xlink:href="#j" transform="matrix(1,0,0,1,1325,93.63095238095246) translate(27.15314814814814 52.45444444444445)"/><use xlink:href="#k" transform="matrix(1,0,0,1,1325,93.63095238095246) translate(46.52969135802469 79.1211111111111)"/></g><path d="M540 794.63a6 6 0 0 1 6-6h348a6 6 0 0 1 6 6v29.67a6 6 0 0 1-6 6H546a6 6 0 0 1-6-6z" stroke="#000" stroke-opacity="0" fill="#fff" fill-opacity="0"/><use xlink:href="#l" transform="matrix(1,0,0,1,545,793.6309523809524) translate(4.975308641975346 20.22222222222222)"/><use xlink:href="#m" transform="matrix(1,0,0,1,545,793.6309523809524) translate(57.271604938271636 20.22222222222222)"/><use xlink:href="#n" transform="matrix(1,0,0,1,545,793.6309523809524) translate(113.41975308641977 20.22222222222222)"/><use xlink:href="#o" transform="matrix(1,0,0,1,545,793.6309523809524) translate(175.49382716049382 20.22222222222222)"/><use xlink:href="#p" transform="matrix(1,0,0,1,545,793.6309523809524) translate(235.64197530864197 20.22222222222222)"/><path d="M108.2 648.75h18v13.94h-18v-13.95z" fill="#29aae1"/><path d="M21.2 523.63h190.4v125.12H21.2V523.63z" fill="#29aae1"/><path d="M29.8 531.28h173.8v111.86H29.8V531.28z" fill="#fff" fill-opacity=".98"/><path d="M28.6 663.54h173.6l-8.6 29.92H20l8.6-29.92z" fill="#29aae1"/><path d="M27.6 662.52h177.6l14.8 30.94H42.4l-14.8-30.94z" fill="#29aae1"/><path d="M87.8 685.47H151v6.3H87.8v-6.3zM53 667.45h4.6v3.9H53v-3.9zM61.2 667.62H66v3.9h-4.8v-3.9zM71.8 674.76h4.8v3.9h-4.8v-3.9zM70.2 667.1h4.6v4.1h-4.6v-4.1zM78.2 667.45H83v3.9h-4.8v-3.9zM86 667.1h4.8v4.1H86v-4.1zM135 667.8h4.8v4.07H135v-4.08zM142.2 667.8h4.8v4.07h-4.8v-4.08zM149 667.8h4.8v4.07H149v-4.08zM157.2 667.8h4.6v4.07h-4.6v-4.08zM164.6 667.8h4.6v4.07h-4.6v-4.08zM155.8 674.42h4.6v3.9h-4.6v-3.9zM173 667.8h4.8v4.07H173v-4.08zM80.8 674.6h4.6v3.9h-4.6v-3.9zM89.8 674.6h4.6v3.9h-4.6v-3.9zM148.4 674.25h4v3.9h-4v-3.9zM140.2 674.25h4.8v3.9h-4.8v-3.9zM94.8 667.28h4.8v4.08h-4.8v-4.08zM103.8 667.45h4.6v4.08h-4.6v-4.08zM112 667.28h4.6v4.08H112v-4.08zM121 667.28h4.6v4.08H121v-4.08zM128.4 667.45h4.6v4.08h-4.6v-4.08zM97.8 674.42h4.8v3.9h-4.8v-3.9zM106.8 674.42h4.6v3.9h-4.6v-3.9zM115 674.6h4.8v3.9H115v-3.9zM123.2 674.6h4.6v3.9h-4.6v-3.9zM131.6 674.25h4.6v3.9h-4.6v-3.9z" fill="#fff"/><path d="M20.2 693.46l199.8-.68-14.2-30.26-177 .34-8.6 30.6z" fill="none"/><path d="M107.2 648.75h19.6v1.87h-19.6v-1.87zM108 660.3h18.6v2.22H108v-2.2z" fill="#fff"/><use xlink:href="#d" transform="matrix(1,0,0,1,-10,693.6309523809525) translate(63.672839506172835 19.444444444444443)"/><use xlink:href="#q" transform="matrix(1,0,0,1,-10,693.6309523809525) translate(115.03086419753086 19.444444444444443)"/><path d="M227.98 608.63h161.6a6 6 0 0 1 6 6v73a6 6 0 0 0 6 6h161.57" stroke="#282c33" fill="none"/><path d="M213.22 608.63l14.26-4.63v9.27zM577.92 693.63l-14.27 4.64V689z" stroke="#282c33" fill="#282c33"/><path d="M300 554.63a6 6 0 0 1 6-6h68a6 6 0 0 1 6 6v23a6 6 0 0 1-6 6h-68a6 6 0 0 1-6-6z" stroke="#000" stroke-opacity="0" fill="#fff" fill-opacity="0"/><use xlink:href="#g" transform="matrix(1,0,0,1,305,553.6309523809525) translate(6.080246913580247 19.34027777777778)"/><path d="M1180 294.63a6 6 0 0 1 6-6h208a6 6 0 0 1 6 6v28a6 6 0 0 1-6 6h-208a6 6 0 0 1-6-6z" stroke="#000" stroke-opacity="0" fill="#fff" fill-opacity="0"/><use xlink:href="#r" transform="matrix(1,0,0,1,1185,293.63095238095246) translate(16.26543209876543 19.65277777777778)"/><use xlink:href="#s" transform="matrix(1,0,0,1,1185,293.63095238095246) translate(95.15432098765432 19.65277777777778)"/><path d="M1399.5 205.27v126.45a6 6 0 0 1-6 6H1236a6 6 0 0 0-6 6v130.56" stroke="#282c33" fill="none"/><path d="M1400 205.06v.23h-1v-.8z" stroke="#282c33" stroke-width=".05" fill="#282c33"/><path d="M1230 489.05l-4.64-14.27h9.28z" stroke="#282c33" fill="#282c33"/><path d="M940 176.63c0 6.63-26.86 12-60 12s-60-5.37-60-12v-96c0-6.63 26.86-12 60-12s60 5.37 60 12z" stroke="#c3f7c8" fill="#54c45e"/><path d="M940 80.63c0 6.63-26.86 12-60 12s-60-5.37-60-12" stroke="#c3f7c8" fill="none"/><path d="M820 176.63c0 6.63-26.86 12-60 12s-60-5.37-60-12v-96c0-6.63 26.86-12 60-12s60 5.37 60 12z" stroke="#e3fae3" fill="#54c45e"/><path d="M820 80.63c0 6.63-26.86 12-60 12s-60-5.37-60-12" stroke="#e3fae3" fill="none"/><path d="M880 196.63c0 6.63-26.86 12-60 12s-60-5.37-60-12v-96c0-6.63 26.86-12 60-12s60 5.37 60 12z" stroke="#e3fae3" fill="#54c45e"/><path d="M880 100.63c0 6.63-26.86 12-60 12s-60-5.37-60-12" stroke="#e3fae3" fill="none"/><use xlink:href="#t" transform="matrix(1,0,0,1,765,117.63095238095246) translate(2.5925925925925952 33.90277777777778)"/><use xlink:href="#u" transform="matrix(1,0,0,1,765,117.63095238095246) translate(76.60493827160494 33.90277777777778)"/><use xlink:href="#v" transform="matrix(1,0,0,1,765,117.63095238095246) translate(16.172839506172835 60.56944444444445)"/><path d="M820 225.52v189.63a6 6 0 0 0 6 6h218a6 6 0 0 1 6 6v189.63" stroke="#282c33" fill="none"/><path d="M820 210.75l4.64 14.27h-9.28zM1050 631.55l-4.64-14.27h9.28z" stroke="#282c33" fill="#282c33"/><path d="M820 394.63a6 6 0 0 1 6-6h208a6 6 0 0 1 6 6v28a6 6 0 0 1-6 6H826a6 6 0 0 1-6-6z" stroke="#000" stroke-opacity="0" fill="#fff" fill-opacity="0"/><g><use xlink:href="#w" transform="matrix(1,0,0,1,825.0000000000001,393.63095238095246) translate(26.141975308641975 19.65277777777778)"/><use xlink:href="#x" transform="matrix(1,0,0,1,825.0000000000001,393.63095238095246) translate(124.84567901234568 19.65277777777778)"/></g><path d="M360 234.63a6 6 0 0 1 6-6h348a6 6 0 0 1 6 6v29.67a6 6 0 0 1-6 6H366a6 6 0 0 1-6-6z" stroke="#000" stroke-opacity="0" fill="#fff" fill-opacity="0"/><g><use xlink:href="#y" transform="matrix(1,0,0,1,365,233.6309523809524) translate(39.00000000000003 20.22222222222222)"/><use xlink:href="#z" transform="matrix(1,0,0,1,365,233.6309523809524) translate(122.85185185185186 20.22222222222222)"/><use xlink:href="#A" transform="matrix(1,0,0,1,365,233.6309523809524) translate(182.7037037037037 20.22222222222222)"/><use xlink:href="#B" transform="matrix(1,0,0,1,365,233.6309523809524) translate(232.037037037037 20.22222222222222)"/></g><defs><path fill="#3a414a" d="M190 0L58-211 59 0H30v-248h39L202-35l-2-213h31V0h-41" id="C"/><path fill="#3a414a" d="M100-194c62-1 85 37 85 99 1 63-27 99-86 99S16-35 15-95c0-66 28-99 85-99zM99-20c44 1 53-31 53-75 0-43-8-75-51-75s-53 32-53 75 10 74 51 75" id="D"/><path fill="#3a414a" d="M85-194c31 0 48 13 60 33l-1-100h32l1 261h-30c-2-10 0-23-3-31C134-8 116 4 85 4 32 4 16-35 15-94c0-66 23-100 70-100zm9 24c-40 0-46 34-46 75 0 40 6 74 45 74 42 0 51-32 51-76 0-42-9-74-50-73" id="E"/><path fill="#3a414a" d="M100-194c63 0 86 42 84 106H49c0 40 14 67 53 68 26 1 43-12 49-29l28 8c-11 28-37 45-77 45C44 4 14-33 15-96c1-61 26-98 85-98zm52 81c6-60-76-77-97-28-3 7-6 17-6 28h103" id="F"/><g id="a"><use transform="matrix(0.06172839506172839,0,0,0.06172839506172839,0,0)" xlink:href="#C"/><use transform="matrix(0.06172839506172839,0,0,0.06172839506172839,15.987654320987653,0)" xlink:href="#D"/><use transform="matrix(0.06172839506172839,0,0,0.06172839506172839,28.333333333333332,0)" xlink:href="#E"/><use transform="matrix(0.06172839506172839,0,0,0.06172839506172839,40.67901234567901,0)" xlink:href="#F"/></g><path fill="#3a414a" d="M205 0l-28-72H64L36 0H1l101-248h38L239 0h-34zm-38-99l-47-123c-12 45-31 82-46 123h93" id="G"/><path fill="#3a414a" d="M30-248c87 1 191-15 191 75 0 78-77 80-158 76V0H30v-248zm33 125c57 0 124 11 124-50 0-59-68-47-124-48v98" id="H"/><path fill="#3a414a" d="M33 0v-248h34V0H33" id="I"/><g id="b"><use transform="matrix(0.06172839506172839,0,0,0.06172839506172839,0,0)" xlink:href="#G"/><use transform="matrix(0.06172839506172839,0,0,0.06172839506172839,14.814814814814813,0)" xlink:href="#H"/><use transform="matrix(0.06172839506172839,0,0,0.06172839506172839,29.629629629629626,0)" xlink:href="#I"/></g><path fill="#3a414a" d="M87 75C49 33 22-17 22-94c0-76 28-126 65-167h31c-38 41-64 92-64 168S80 34 118 75H87" id="J"/><path fill="#3a414a" d="M117-194c89-4 53 116 60 194h-32v-121c0-31-8-49-39-48C34-167 62-67 57 0H25l-1-190h30c1 10-1 24 2 32 11-22 29-35 61-36" id="K"/><path fill="#3a414a" d="M141-36C126-15 110 5 73 4 37 3 15-17 15-53c-1-64 63-63 125-63 3-35-9-54-41-54-24 1-41 7-42 31l-33-3c5-37 33-52 76-52 45 0 72 20 72 64v82c-1 20 7 32 28 27v20c-31 9-61-2-59-35zM48-53c0 20 12 33 32 33 41-3 63-29 60-74-43 2-92-5-92 41" id="L"/><path fill="#3a414a" d="M135-143c-3-34-86-38-87 0 15 53 115 12 119 90S17 21 10-45l28-5c4 36 97 45 98 0-10-56-113-15-118-90-4-57 82-63 122-42 12 7 21 19 24 35" id="M"/><path fill="#3a414a" d="M16-82v-28h88v28H16" id="N"/><path fill="#3a414a" d="M115-194c55 1 70 41 70 98S169 2 115 4C84 4 66-9 55-30l1 105H24l-1-265h31l2 30c10-21 28-34 59-34zm-8 174c40 0 45-34 45-75s-6-73-45-74c-42 0-51 32-51 76 0 43 10 73 51 73" id="O"/><path fill="#3a414a" d="M114-163C36-179 61-72 57 0H25l-1-190h30c1 12-1 29 2 39 6-27 23-49 58-41v29" id="P"/><path fill="#3a414a" d="M24-231v-30h32v30H24zM-9 49c24 4 33-6 33-30v-209h32V24c2 40-23 58-65 49V49" id="Q"/><path fill="#3a414a" d="M96-169c-40 0-48 33-48 73s9 75 48 75c24 0 41-14 43-38l32 2c-6 37-31 61-74 61-59 0-76-41-82-99-10-93 101-131 147-64 4 7 5 14 7 22l-32 3c-4-21-16-35-41-35" id="R"/><path fill="#3a414a" d="M59-47c-2 24 18 29 38 22v24C64 9 27 4 27-40v-127H5v-23h24l9-43h21v43h35v23H59v120" id="S"/><path fill="#3a414a" d="M24-231v-30h32v30H24zM24 0v-190h32V0H24" id="T"/><path fill="#3a414a" d="M33-261c38 41 65 92 65 168S71 34 33 75H2C39 34 66-17 66-93S39-220 2-261h31" id="U"/><g id="c"><use transform="matrix(0.06172839506172839,0,0,0.06172839506172839,0,0)" xlink:href="#J"/><use transform="matrix(0.06172839506172839,0,0,0.06172839506172839,7.345679012345679,0)" xlink:href="#K"/><use transform="matrix(0.06172839506172839,0,0,0.06172839506172839,19.691358024691358,0)" xlink:href="#L"/><use transform="matrix(0.06172839506172839,0,0,0.06172839506172839,32.03703703703704,0)" xlink:href="#M"/><use transform="matrix(0.06172839506172839,0,0,0.06172839506172839,43.14814814814815,0)" xlink:href="#L"/><use transform="matrix(0.06172839506172839,0,0,0.06172839506172839,55.49382716049383,0)" xlink:href="#N"/><use transform="matrix(0.06172839506172839,0,0,0.06172839506172839,62.839506172839506,0)" xlink:href="#O"/><use transform="matrix(0.06172839506172839,0,0,0.06172839506172839,75.18518518518519,0)" xlink:href="#P"/><use transform="matrix(0.06172839506172839,0,0,0.06172839506172839,82.53086419753087,0)" xlink:href="#D"/><use transform="matrix(0.06172839506172839,0,0,0.06172839506172839,94.87654320987656,0)" xlink:href="#Q"/><use transform="matrix(0.06172839506172839,0,0,0.06172839506172839,99.7530864197531,0)" xlink:href="#F"/><use transform="matrix(0.06172839506172839,0,0,0.06172839506172839,112.09876543209879,0)" xlink:href="#R"/><use transform="matrix(0.06172839506172839,0,0,0.06172839506172839,123.2098765432099,0)" xlink:href="#S"/><use transform="matrix(0.06172839506172839,0,0,0.06172839506172839,129.38271604938274,0)" xlink:href="#N"/><use transform="matrix(0.06172839506172839,0,0,0.06172839506172839,136.7283950617284,0)" xlink:href="#L"/><use transform="matrix(0.06172839506172839,0,0,0.06172839506172839,149.07407407407408,0)" xlink:href="#O"/><use transform="matrix(0.06172839506172839,0,0,0.06172839506172839,161.41975308641975,0)" xlink:href="#T"/><use transform="matrix(0.06172839506172839,0,0,0.06172839506172839,166.29629629629628,0)" xlink:href="#U"/></g><path fill="#3a414a" d="M266 0h-40l-56-210L115 0H75L2-248h35L96-30l15-64 43-154h32l59 218 59-218h35" id="V"/><path fill="#3a414a" d="M115-194c53 0 69 39 70 98 0 66-23 100-70 100C84 3 66-7 56-30L54 0H23l1-261h32v101c10-23 28-34 59-34zm-8 174c40 0 45-34 45-75 0-40-5-75-45-74-42 0-51 32-51 76 0 43 10 73 51 73" id="W"/><g id="d"><use transform="matrix(0.06172839506172839,0,0,0.06172839506172839,0,0)" xlink:href="#V"/><use transform="matrix(0.06172839506172839,0,0,0.06172839506172839,20.493827160493826,0)" xlink:href="#F"/><use transform="matrix(0.06172839506172839,0,0,0.06172839506172839,32.839506172839506,0)" xlink:href="#W"/></g><path fill="#3a414a" d="M24 0v-261h32V0H24" id="X"/><g id="e"><use transform="matrix(0.06172839506172839,0,0,0.06172839506172839,0,0)" xlink:href="#G"/><use transform="matrix(0.06172839506172839,0,0,0.06172839506172839,14.814814814814813,0)" xlink:href="#O"/><use transform="matrix(0.06172839506172839,0,0,0.06172839506172839,27.160493827160494,0)" xlink:href="#X"/><use transform="matrix(0.06172839506172839,0,0,0.06172839506172839,32.03703703703704,0)" xlink:href="#T"/><use transform="matrix(0.06172839506172839,0,0,0.06172839506172839,36.91358024691358,0)" xlink:href="#R"/><use transform="matrix(0.06172839506172839,0,0,0.06172839506172839,48.0246913580247,0)" xlink:href="#L"/><use transform="matrix(0.06172839506172839,0,0,0.06172839506172839,60.370370370370374,0)" xlink:href="#S"/><use transform="matrix(0.06172839506172839,0,0,0.06172839506172839,66.54320987654322,0)" xlink:href="#T"/><use transform="matrix(0.06172839506172839,0,0,0.06172839506172839,71.41975308641976,0)" xlink:href="#D"/><use transform="matrix(0.06172839506172839,0,0,0.06172839506172839,83.76543209876544,0)" xlink:href="#K"/></g><path fill="#3a414a" d="M101-234c-31-9-42 10-38 44h38v23H63V0H32v-167H5v-23h27c-7-52 17-82 69-68v24" id="Y"/><g id="f"><use transform="matrix(0.06172839506172839,0,0,0.06172839506172839,0,0)" xlink:href="#J"/><use transform="matrix(0.06172839506172839,0,0,0.06172839506172839,7.345679012345679,0)" xlink:href="#K"/><use transform="matrix(0.06172839506172839,0,0,0.06172839506172839,19.691358024691358,0)" xlink:href="#L"/><use transform="matrix(0.06172839506172839,0,0,0.06172839506172839,32.03703703703704,0)" xlink:href="#M"/><use transform="matrix(0.06172839506172839,0,0,0.06172839506172839,43.14814814814815,0)" xlink:href="#L"/><use transform="matrix(0.06172839506172839,0,0,0.06172839506172839,55.49382716049383,0)" xlink:href="#N"/><use transform="matrix(0.06172839506172839,0,0,0.06172839506172839,62.839506172839506,0)" xlink:href="#Y"/><use transform="matrix(0.06172839506172839,0,0,0.06172839506172839,69.01234567901234,0)" xlink:href="#F"/><use transform="matrix(0.06172839506172839,0,0,0.06172839506172839,81.35802469135803,0)" xlink:href="#U"/></g><path fill="#3a414a" d="M197 0v-115H63V0H30v-248h33v105h134v-105h34V0h-34" id="Z"/><path fill="#3a414a" d="M127-220V0H93v-220H8v-28h204v28h-85" id="aa"/><g id="g"><use transform="matrix(0.06172839506172839,0,0,0.06172839506172839,0,0)" xlink:href="#Z"/><use transform="matrix(0.06172839506172839,0,0,0.06172839506172839,15.987654320987653,0)" xlink:href="#aa"/><use transform="matrix(0.06172839506172839,0,0,0.06172839506172839,29.50617283950617,0)" xlink:href="#aa"/><use transform="matrix(0.06172839506172839,0,0,0.06172839506172839,43.02469135802469,0)" xlink:href="#H"/></g><path fill="#3a414a" d="M143 0L79-87 56-68V0H24v-261h32v163l83-92h37l-77 82L181 0h-38" id="ab"/><path fill="#3a414a" d="M-5 72V49h209v23H-5" id="ac"/><path fill="#3a414a" d="M33 0v-38h34V0H33" id="ad"/><path fill="#3a414a" d="M108 0H70L1-190h34L89-25l56-165h34" id="ae"/><g id="h"><use transform="matrix(0.06172839506172839,0,0,0.06172839506172839,0,0)" xlink:href="#ab"/><use transform="matrix(0.06172839506172839,0,0,0.06172839506172839,11.11111111111111,0)" xlink:href="#F"/><use transform="matrix(0.06172839506172839,0,0,0.06172839506172839,23.45679012345679,0)" xlink:href="#O"/><use transform="matrix(0.06172839506172839,0,0,0.06172839506172839,35.80246913580247,0)" xlink:href="#X"/><use transform="matrix(0.06172839506172839,0,0,0.06172839506172839,40.67901234567901,0)" xlink:href="#F"/><use transform="matrix(0.06172839506172839,0,0,0.06172839506172839,53.02469135802469,0)" xlink:href="#P"/><use transform="matrix(0.06172839506172839,0,0,0.06172839506172839,60.37037037037037,0)" xlink:href="#ac"/><use transform="matrix(0.06172839506172839,0,0,0.06172839506172839,72.71604938271605,0)" xlink:href="#E"/><use transform="matrix(0.06172839506172839,0,0,0.06172839506172839,85.06172839506173,0)" xlink:href="#L"/><use transform="matrix(0.06172839506172839,0,0,0.06172839506172839,97.40740740740742,0)" xlink:href="#S"/><use transform="matrix(0.06172839506172839,0,0,0.06172839506172839,103.58024691358025,0)" xlink:href="#L"/><use transform="matrix(0.06172839506172839,0,0,0.06172839506172839,115.92592592592594,0)" xlink:href="#ad"/><use transform="matrix(0.06172839506172839,0,0,0.06172839506172839,122.09876543209877,0)" xlink:href="#R"/><use transform="matrix(0.06172839506172839,0,0,0.06172839506172839,133.20987654320987,0)" xlink:href="#M"/><use transform="matrix(0.06172839506172839,0,0,0.06172839506172839,144.320987654321,0)" xlink:href="#ae"/></g><path fill="#fff" d="M190 0L58-211 59 0H30v-248h39L202-35l-2-213h31V0h-41" id="af"/><path fill="#fff" d="M205 0l-28-72H64L36 0H1l101-248h38L239 0h-34zm-38-99l-47-123c-12 45-31 82-46 123h93" id="ag"/><path fill="#fff" d="M185-189c-5-48-123-54-124 2 14 75 158 14 163 119 3 78-121 87-175 55-17-10-28-26-33-46l33-7c5 56 141 63 141-1 0-78-155-14-162-118-5-82 145-84 179-34 5 7 8 16 11 25" id="ah"/><g id="i"><use transform="matrix(0.06172839506172839,0,0,0.06172839506172839,0,0)" xlink:href="#af"/><use transform="matrix(0.06172839506172839,0,0,0.06172839506172839,15.987654320987653,0)" xlink:href="#ag"/><use transform="matrix(0.06172839506172839,0,0,0.06172839506172839,30.80246913580247,0)" xlink:href="#ah"/><use transform="matrix(0.06172839506172839,0,0,0.06172839506172839,45.61728395061728,0)" xlink:href="#ag"/></g><path fill="#fff" d="M30 0v-248h187v28H63v79h144v27H63v87h162V0H30" id="ai"/><path fill="#fff" d="M141 0L90-78 38 0H4l68-98-65-92h35l48 74 47-74h35l-64 92 68 98h-35" id="aj"/><path fill="#fff" d="M100-194c62-1 85 37 85 99 1 63-27 99-86 99S16-35 15-95c0-66 28-99 85-99zM99-20c44 1 53-31 53-75 0-43-8-75-51-75s-53 32-53 75 10 74 51 75" id="ak"/><path fill="#fff" d="M115-194c55 1 70 41 70 98S169 2 115 4C84 4 66-9 55-30l1 105H24l-1-265h31l2 30c10-21 28-34 59-34zm-8 174c40 0 45-34 45-75s-6-73-45-74c-42 0-51 32-51 76 0 43 10 73 51 73" id="al"/><path fill="#fff" d="M24 0v-261h32V0H24" id="am"/><path fill="#fff" d="M141-36C126-15 110 5 73 4 37 3 15-17 15-53c-1-64 63-63 125-63 3-35-9-54-41-54-24 1-41 7-42 31l-33-3c5-37 33-52 76-52 45 0 72 20 72 64v82c-1 20 7 32 28 27v20c-31 9-61-2-59-35zM48-53c0 20 12 33 32 33 41-3 63-29 60-74-43 2-92-5-92 41" id="an"/><path fill="#fff" d="M117-194c89-4 53 116 60 194h-32v-121c0-31-8-49-39-48C34-167 62-67 57 0H25l-1-190h30c1 10-1 24 2 32 11-22 29-35 61-36" id="ao"/><path fill="#fff" d="M100-194c63 0 86 42 84 106H49c0 40 14 67 53 68 26 1 43-12 49-29l28 8c-11 28-37 45-77 45C44 4 14-33 15-96c1-61 26-98 85-98zm52 81c6-60-76-77-97-28-3 7-6 17-6 28h103" id="ap"/><path fill="#fff" d="M59-47c-2 24 18 29 38 22v24C64 9 27 4 27-40v-127H5v-23h24l9-43h21v43h35v23H59v120" id="aq"/><g id="j"><use transform="matrix(0.06172839506172839,0,0,0.06172839506172839,0,0)" xlink:href="#ai"/><use transform="matrix(0.06172839506172839,0,0,0.06172839506172839,14.814814814814813,0)" xlink:href="#aj"/><use transform="matrix(0.06172839506172839,0,0,0.06172839506172839,25.925925925925924,0)" xlink:href="#ak"/><use transform="matrix(0.06172839506172839,0,0,0.06172839506172839,38.2716049382716,0)" xlink:href="#al"/><use transform="matrix(0.06172839506172839,0,0,0.06172839506172839,50.61728395061728,0)" xlink:href="#am"/><use transform="matrix(0.06172839506172839,0,0,0.06172839506172839,55.49382716049382,0)" xlink:href="#an"/><use transform="matrix(0.06172839506172839,0,0,0.06172839506172839,67.8395061728395,0)" xlink:href="#ao"/><use transform="matrix(0.06172839506172839,0,0,0.06172839506172839,80.18518518518519,0)" xlink:href="#ap"/><use transform="matrix(0.06172839506172839,0,0,0.06172839506172839,92.53086419753087,0)" xlink:href="#aq"/></g><path fill="#fff" d="M114-163C36-179 61-72 57 0H25l-1-190h30c1 12-1 29 2 39 6-27 23-49 58-41v29" id="ar"/><path fill="#fff" d="M96-169c-40 0-48 33-48 73s9 75 48 75c24 0 41-14 43-38l32 2c-6 37-31 61-74 61-59 0-76-41-82-99-10-93 101-131 147-64 4 7 5 14 7 22l-32 3c-4-21-16-35-41-35" id="as"/><path fill="#fff" d="M106-169C34-169 62-67 57 0H25v-261h32l-1 103c12-21 28-36 61-36 89 0 53 116 60 194h-32v-121c2-32-8-49-39-48" id="at"/><path fill="#fff" d="M24-231v-30h32v30H24zM24 0v-190h32V0H24" id="au"/><path fill="#fff" d="M108 0H70L1-190h34L89-25l56-165h34" id="av"/><g id="k"><use transform="matrix(0.06172839506172839,0,0,0.06172839506172839,0,0)" xlink:href="#ag"/><use transform="matrix(0.06172839506172839,0,0,0.06172839506172839,14.814814814814813,0)" xlink:href="#ar"/><use transform="matrix(0.06172839506172839,0,0,0.06172839506172839,22.160493827160494,0)" xlink:href="#as"/><use transform="matrix(0.06172839506172839,0,0,0.06172839506172839,33.27160493827161,0)" xlink:href="#at"/><use transform="matrix(0.06172839506172839,0,0,0.06172839506172839,45.617283950617285,0)" xlink:href="#au"/><use transform="matrix(0.06172839506172839,0,0,0.06172839506172839,50.49382716049383,0)" xlink:href="#av"/><use transform="matrix(0.06172839506172839,0,0,0.06172839506172839,61.60493827160494,0)" xlink:href="#ap"/></g><path fill="#3a414a" d="M185-189c-5-48-123-54-124 2 14 75 158 14 163 119 3 78-121 87-175 55-17-10-28-26-33-46l33-7c5 56 141 63 141-1 0-78-155-14-162-118-5-82 145-84 179-34 5 7 8 16 11 25" id="aw"/><g id="l"><use transform="matrix(0.049382716049382706,0,0,0.049382716049382706,0,0)" xlink:href="#C"/><use transform="matrix(0.049382716049382706,0,0,0.049382716049382706,12.790123456790122,0)" xlink:href="#G"/><use transform="matrix(0.049382716049382706,0,0,0.049382716049382706,24.64197530864197,0)" xlink:href="#aw"/><use transform="matrix(0.049382716049382706,0,0,0.049382716049382706,36.49382716049382,0)" xlink:href="#G"/></g><path fill="#3a414a" d="M240 0l2-218c-23 76-54 145-80 218h-23L58-218 59 0H30v-248h44l77 211c21-75 51-140 76-211h43V0h-30" id="ax"/><g id="m"><use transform="matrix(0.049382716049382706,0,0,0.049382716049382706,0,0)" xlink:href="#ax"/><use transform="matrix(0.049382716049382706,0,0,0.049382716049382706,14.765432098765428,0)" xlink:href="#T"/><use transform="matrix(0.049382716049382706,0,0,0.049382716049382706,18.66666666666666,0)" xlink:href="#M"/><use transform="matrix(0.049382716049382706,0,0,0.049382716049382706,27.55555555555555,0)" xlink:href="#T"/><use transform="matrix(0.049382716049382706,0,0,0.049382716049382706,31.456790123456784,0)" xlink:href="#D"/><use transform="matrix(0.049382716049382706,0,0,0.049382716049382706,41.33333333333333,0)" xlink:href="#K"/></g><path fill="#3a414a" d="M212-179c-10-28-35-45-73-45-59 0-87 40-87 99 0 60 29 101 89 101 43 0 62-24 78-52l27 14C228-24 195 4 139 4 59 4 22-46 18-125c-6-104 99-153 187-111 19 9 31 26 39 46" id="ay"/><g id="n"><use transform="matrix(0.049382716049382706,0,0,0.049382716049382706,0,0)" xlink:href="#ay"/><use transform="matrix(0.049382716049382706,0,0,0.049382716049382706,12.790123456790122,0)" xlink:href="#D"/><use transform="matrix(0.049382716049382706,0,0,0.049382716049382706,22.666666666666664,0)" xlink:href="#K"/><use transform="matrix(0.049382716049382706,0,0,0.049382716049382706,32.5432098765432,0)" xlink:href="#S"/><use transform="matrix(0.049382716049382706,0,0,0.049382716049382706,37.481481481481474,0)" xlink:href="#P"/><use transform="matrix(0.049382716049382706,0,0,0.049382716049382706,43.35802469135802,0)" xlink:href="#D"/><use transform="matrix(0.049382716049382706,0,0,0.049382716049382706,53.234567901234556,0)" xlink:href="#X"/></g><g id="o"><use transform="matrix(0.049382716049382706,0,0,0.049382716049382706,0,0)" xlink:href="#H"/><use transform="matrix(0.049382716049382706,0,0,0.049382716049382706,11.85185185185185,0)" xlink:href="#P"/><use transform="matrix(0.049382716049382706,0,0,0.049382716049382706,17.728395061728392,0)" xlink:href="#D"/><use transform="matrix(0.049382716049382706,0,0,0.049382716049382706,27.604938271604933,0)" xlink:href="#Q"/><use transform="matrix(0.049382716049382706,0,0,0.049382716049382706,31.506172839506167,0)" xlink:href="#F"/><use transform="matrix(0.049382716049382706,0,0,0.049382716049382706,41.38271604938271,0)" xlink:href="#R"/><use transform="matrix(0.049382716049382706,0,0,0.049382716049382706,50.271604938271594,0)" xlink:href="#S"/></g><g id="p"><use transform="matrix(0.049382716049382706,0,0,0.049382716049382706,0,0)" xlink:href="#J"/><use transform="matrix(0.049382716049382706,0,0,0.049382716049382706,5.876543209876542,0)" xlink:href="#K"/><use transform="matrix(0.049382716049382706,0,0,0.049382716049382706,15.75308641975308,0)" xlink:href="#L"/><use transform="matrix(0.049382716049382706,0,0,0.049382716049382706,25.629629629629626,0)" xlink:href="#M"/><use transform="matrix(0.049382716049382706,0,0,0.049382716049382706,34.51851851851851,0)" xlink:href="#L"/><use transform="matrix(0.049382716049382706,0,0,0.049382716049382706,44.39506172839505,0)" xlink:href="#N"/><use transform="matrix(0.049382716049382706,0,0,0.049382716049382706,50.271604938271594,0)" xlink:href="#O"/><use transform="matrix(0.049382716049382706,0,0,0.049382716049382706,60.14814814814814,0)" xlink:href="#P"/><use transform="matrix(0.049382716049382706,0,0,0.049382716049382706,66.02469135802468,0)" xlink:href="#D"/><use transform="matrix(0.049382716049382706,0,0,0.049382716049382706,75.90123456790123,0)" xlink:href="#Q"/><use transform="matrix(0.049382716049382706,0,0,0.049382716049382706,79.80246913580245,0)" xlink:href="#F"/><use transform="matrix(0.049382716049382706,0,0,0.049382716049382706,89.679012345679,0)" xlink:href="#R"/><use transform="matrix(0.049382716049382706,0,0,0.049382716049382706,98.56790123456788,0)" xlink:href="#S"/><use transform="matrix(0.049382716049382706,0,0,0.049382716049382706,103.50617283950615,0)" xlink:href="#U"/></g><path fill="#3a414a" d="M160-131c35 5 61 23 61 61C221 17 115-2 30 0v-248c76 3 177-17 177 60 0 33-19 50-47 57zm-97-11c50-1 110 9 110-42 0-47-63-36-110-37v79zm0 115c55-2 124 14 124-45 0-56-70-42-124-44v89" id="az"/><path fill="#3a414a" d="M206 0h-36l-40-164L89 0H53L-1-190h32L70-26l43-164h34l41 164 42-164h31" id="aA"/><g id="q"><use transform="matrix(0.06172839506172839,0,0,0.06172839506172839,0,0)" xlink:href="#az"/><use transform="matrix(0.06172839506172839,0,0,0.06172839506172839,14.814814814814813,0)" xlink:href="#P"/><use transform="matrix(0.06172839506172839,0,0,0.06172839506172839,22.160493827160494,0)" xlink:href="#D"/><use transform="matrix(0.06172839506172839,0,0,0.06172839506172839,34.50617283950617,0)" xlink:href="#aA"/><use transform="matrix(0.06172839506172839,0,0,0.06172839506172839,50.49382716049382,0)" xlink:href="#M"/><use transform="matrix(0.06172839506172839,0,0,0.06172839506172839,61.60493827160494,0)" xlink:href="#F"/><use transform="matrix(0.06172839506172839,0,0,0.06172839506172839,73.95061728395062,0)" xlink:href="#P"/></g><path fill="#3a414a" d="M84 4C-5 8 30-112 23-190h32v120c0 31 7 50 39 49 72-2 45-101 50-169h31l1 190h-30c-1-10 1-25-2-33-11 22-28 36-60 37" id="aB"/><g id="r"><use transform="matrix(0.06172839506172839,0,0,0.06172839506172839,0,0)" xlink:href="#ax"/><use transform="matrix(0.06172839506172839,0,0,0.06172839506172839,18.456790123456788,0)" xlink:href="#L"/><use transform="matrix(0.06172839506172839,0,0,0.06172839506172839,30.80246913580247,0)" xlink:href="#K"/><use transform="matrix(0.06172839506172839,0,0,0.06172839506172839,43.148148148148145,0)" xlink:href="#aB"/><use transform="matrix(0.06172839506172839,0,0,0.06172839506172839,55.49382716049382,0)" xlink:href="#L"/><use transform="matrix(0.06172839506172839,0,0,0.06172839506172839,67.8395061728395,0)" xlink:href="#X"/></g><path fill="#3a414a" d="M30-248c118-7 216 8 213 122C240-48 200 0 122 0H30v-248zM63-27c89 8 146-16 146-99s-60-101-146-95v194" id="aC"/><g id="s"><use transform="matrix(0.06172839506172839,0,0,0.06172839506172839,0,0)" xlink:href="#aC"/><use transform="matrix(0.06172839506172839,0,0,0.06172839506172839,15.987654320987653,0)" xlink:href="#D"/><use transform="matrix(0.06172839506172839,0,0,0.06172839506172839,28.333333333333332,0)" xlink:href="#aA"/><use transform="matrix(0.06172839506172839,0,0,0.06172839506172839,44.32098765432099,0)" xlink:href="#K"/><use transform="matrix(0.06172839506172839,0,0,0.06172839506172839,56.666666666666664,0)" xlink:href="#X"/><use transform="matrix(0.06172839506172839,0,0,0.06172839506172839,61.54320987654321,0)" xlink:href="#D"/><use transform="matrix(0.06172839506172839,0,0,0.06172839506172839,73.88888888888889,0)" xlink:href="#L"/><use transform="matrix(0.06172839506172839,0,0,0.06172839506172839,86.23456790123457,0)" xlink:href="#E"/></g><path fill="#3a414a" d="M177-190C167-65 218 103 67 71c-23-6-38-20-44-43l32-5c15 47 100 32 89-28v-30C133-14 115 1 83 1 29 1 15-40 15-95c0-56 16-97 71-98 29-1 48 16 59 35 1-10 0-23 2-32h30zM94-22c36 0 50-32 50-73 0-42-14-75-50-75-39 0-46 34-46 75s6 73 46 73" id="aD"/><g id="t"><use transform="matrix(0.06172839506172839,0,0,0.06172839506172839,0,0)" xlink:href="#ax"/><use transform="matrix(0.06172839506172839,0,0,0.06172839506172839,18.456790123456788,0)" xlink:href="#D"/><use transform="matrix(0.06172839506172839,0,0,0.06172839506172839,30.80246913580247,0)" xlink:href="#K"/><use transform="matrix(0.06172839506172839,0,0,0.06172839506172839,43.148148148148145,0)" xlink:href="#aD"/><use transform="matrix(0.06172839506172839,0,0,0.06172839506172839,55.49382716049382,0)" xlink:href="#D"/></g><g id="u"><use transform="matrix(0.06172839506172839,0,0,0.06172839506172839,0,0)" xlink:href="#aC"/><use transform="matrix(0.06172839506172839,0,0,0.06172839506172839,15.987654320987653,0)" xlink:href="#az"/></g><g id="v"><use transform="matrix(0.06172839506172839,0,0,0.06172839506172839,0,0)" xlink:href="#ay"/><use transform="matrix(0.06172839506172839,0,0,0.06172839506172839,15.987654320987653,0)" xlink:href="#D"/><use transform="matrix(0.06172839506172839,0,0,0.06172839506172839,28.333333333333332,0)" xlink:href="#aB"/><use transform="matrix(0.06172839506172839,0,0,0.06172839506172839,40.67901234567901,0)" xlink:href="#M"/><use transform="matrix(0.06172839506172839,0,0,0.06172839506172839,51.79012345679013,0)" xlink:href="#S"/><use transform="matrix(0.06172839506172839,0,0,0.06172839506172839,57.96296296296297,0)" xlink:href="#F"/><use transform="matrix(0.06172839506172839,0,0,0.06172839506172839,70.30864197530865,0)" xlink:href="#P"/></g><g id="w"><use transform="matrix(0.06172839506172839,0,0,0.06172839506172839,0,0)" xlink:href="#ax"/><use transform="matrix(0.06172839506172839,0,0,0.06172839506172839,18.456790123456788,0)" xlink:href="#D"/><use transform="matrix(0.06172839506172839,0,0,0.06172839506172839,30.80246913580247,0)" xlink:href="#K"/><use transform="matrix(0.06172839506172839,0,0,0.06172839506172839,43.148148148148145,0)" xlink:href="#aD"/><use transform="matrix(0.06172839506172839,0,0,0.06172839506172839,55.49382716049382,0)" xlink:href="#D"/><use transform="matrix(0.06172839506172839,0,0,0.06172839506172839,67.8395061728395,0)" xlink:href="#E"/><use transform="matrix(0.06172839506172839,0,0,0.06172839506172839,80.18518518518519,0)" xlink:href="#W"/></g><g id="x"><use transform="matrix(0.06172839506172839,0,0,0.06172839506172839,0,0)" xlink:href="#aC"/><use transform="matrix(0.06172839506172839,0,0,0.06172839506172839,15.987654320987653,0)" xlink:href="#P"/><use transform="matrix(0.06172839506172839,0,0,0.06172839506172839,23.333333333333332,0)" xlink:href="#T"/><use transform="matrix(0.06172839506172839,0,0,0.06172839506172839,28.209876543209873,0)" xlink:href="#ae"/><use transform="matrix(0.06172839506172839,0,0,0.06172839506172839,39.32098765432099,0)" xlink:href="#F"/><use transform="matrix(0.06172839506172839,0,0,0.06172839506172839,51.666666666666664,0)" xlink:href="#P"/></g><g id="y"><use transform="matrix(0.049382716049382706,0,0,0.049382716049382706,0,0)" xlink:href="#ax"/><use transform="matrix(0.049382716049382706,0,0,0.049382716049382706,14.765432098765428,0)" xlink:href="#D"/><use transform="matrix(0.049382716049382706,0,0,0.049382716049382706,24.641975308641968,0)" xlink:href="#K"/><use transform="matrix(0.049382716049382706,0,0,0.049382716049382706,34.518518518518505,0)" xlink:href="#aD"/><use transform="matrix(0.049382716049382706,0,0,0.049382716049382706,44.39506172839505,0)" xlink:href="#D"/><use transform="matrix(0.049382716049382706,0,0,0.049382716049382706,54.271604938271594,0)" xlink:href="#aC"/><use transform="matrix(0.049382716049382706,0,0,0.049382716049382706,67.06172839506172,0)" xlink:href="#az"/></g><path fill="#3a414a" d="M30 0v-248h33v221h125V0H30" id="aE"/><g id="z"><use transform="matrix(0.049382716049382706,0,0,0.049382716049382706,0,0)" xlink:href="#G"/><use transform="matrix(0.049382716049382706,0,0,0.049382716049382706,10.518518518518515,0)" xlink:href="#aa"/><use transform="matrix(0.049382716049382706,0,0,0.049382716049382706,21.33333333333333,0)" xlink:href="#aE"/><use transform="matrix(0.049382716049382706,0,0,0.049382716049382706,31.20987654320987,0)" xlink:href="#G"/><use transform="matrix(0.049382716049382706,0,0,0.049382716049382706,43.06172839506172,0)" xlink:href="#aw"/></g><g id="A"><use transform="matrix(0.049382716049382706,0,0,0.049382716049382706,0,0)" xlink:href="#J"/><use transform="matrix(0.049382716049382706,0,0,0.049382716049382706,5.876543209876542,0)" xlink:href="#K"/><use transform="matrix(0.049382716049382706,0,0,0.049382716049382706,15.75308641975308,0)" xlink:href="#L"/><use transform="matrix(0.049382716049382706,0,0,0.049382716049382706,25.629629629629626,0)" xlink:href="#M"/><use transform="matrix(0.049382716049382706,0,0,0.049382716049382706,34.51851851851851,0)" xlink:href="#L"/></g><g id="B"><use transform="matrix(0.049382716049382706,0,0,0.049382716049382706,0,0)" xlink:href="#E"/><use transform="matrix(0.049382716049382706,0,0,0.049382716049382706,9.87654320987654,0)" xlink:href="#L"/><use transform="matrix(0.049382716049382706,0,0,0.049382716049382706,19.75308641975308,0)" xlink:href="#S"/><use transform="matrix(0.049382716049382706,0,0,0.049382716049382706,24.691358024691354,0)" xlink:href="#L"/><use transform="matrix(0.049382716049382706,0,0,0.049382716049382706,34.5679012345679,0)" xlink:href="#W"/><use transform="matrix(0.049382716049382706,0,0,0.049382716049382706,44.44444444444444,0)" xlink:href="#L"/><use transform="matrix(0.049382716049382706,0,0,0.049382716049382706,54.32098765432099,0)" xlink:href="#M"/><use transform="matrix(0.049382716049382706,0,0,0.049382716049382706,63.20987654320987,0)" xlink:href="#F"/><use transform="matrix(0.049382716049382706,0,0,0.049382716049382706,73.08641975308642,0)" xlink:href="#U"/></g></defs></g></svg>